#!OML:ASF F:\VICON\USERDATA\INSTALL\rory3\rory3.ASF
:FULLY-SPECIFIED
:DEGREES
124
root 0.8158126243461907 17.942991716389457 41.77990586763623 2.2208425206733633 2.63207105350863 1.371213999977019
lfemur -16.346299157904323 1.7795347163610211 -21.441419430178787
ltibia 58.04758819374522
lfoot 4.353165114531055 -13.519291154487473
ltoes -9.024004609604951
rfemur -28.0843024347947 3.7977324110182877 27.295088167043996
rtibia 54.57088651457717
rfoot 1.7700939696523603 -4.991902199754308
rtoes -0.26487037409706793
lowerback 14.007782921384306 -0.6488296979272443 -0.09313103343854068
upperback -1.0918412392972126 -0.8083327677979204 1.3152154486392034
thorax -9.395187781444548 -0.21295033473781355 1.0312079129638525
lowerneck -20.272524790043946 -4.383209354590127 -1.9458755902216032
upperneck 15.657880988985521 -5.906059760320357 2.8490276257346636
head 8.287816943353684 -2.824429484117615 0.5729824242356649
lclavicle -1.9521729781560437e-15 1.1013548979497733e-15
lhumerus -47.605207863804665 -9.302524699284666 97.34382361095184
lradius 110.88106905101478
lwrist 46.32218725457793
lhand -17.858470166501544 6.0160678645021175
lfingers 7.125020000000001
lthumb 8.337634984298525 35.66003783422523
rclavicle -1.952176533109819e-15 1.1013521049827522e-15
rhumerus -53.662568621070804 12.566510190865387 -101.7373050958962
rradius 113.2116136042292
rwrist -15.172270750220166
rhand -24.11943591247356 -104.93052487529155
rfingers 7.125020000000001
rthumb 3.436098795057229 14.742181160904114
125
root 0.7984218910881351 17.87133249060161 40.16812770810531 2.024062926984376 2.31852165289105 1.1466229390674099
lfemur -13.552058642672295 2.315328027119012 -20.65451705190928
ltibia 61.82372710639798
lfoot 4.5299928339717805 -12.936470034949146
ltoes -8.78494065871348
rfemur -26.90895562412571 4.245751156909209 27.663074334478313
rtibia 54.54610825997141
rfoot 2.203608294835692 -4.883163706031804
rtoes -0.06924541359193193
lowerback 14.211175283927199 -0.5590338385781652 0.1484443832218323
upperback -0.9782516229689011 -0.6498524297764179 1.4178861431216359
thorax -9.409520241787941 -0.18863615648110532 1.0034858543943195
lowerneck -20.277574451084313 -4.425150383894724 -1.9669496897284797
upperneck 15.501220269650041 -6.019570166182083 2.7729691343526337
head 8.258522891048333 -2.840989173113694 0.5533806051255297
lclavicle -1.9521729781560437e-15 1.1013548979497733e-15
lhumerus -47.365887830874435 -9.058088307433552 97.61376886332155
lradius 110.60506953051147
lwrist 46.4623355426863
lhand -17.950093660213458 5.824745043334777
lfingers 7.125020000000001
lthumb 8.281030258683533 35.76707044969586
rclavicle -1.952176533109819e-15 1.1013521049827522e-15
rhumerus -53.25913251749078 12.4395389541891 -101.60293566309586
rradius 113.15616723568006
rwrist -15.507671386463077
rhand -23.953306329790365 -104.96319243755764
rfingers 7.125020000000001
rthumb 3.711042446239135 14.802518462782345
126
root 0.7792582813143456 17.786933105773585 38.8826654539976 1.8356178804441186 1.9924253758522723 0.953999344255041
lfemur -17.290962760078642 1.7475534160671553 -22.158941273575255
ltibia 65.46345215541862
lfoot 3.6990572708361587 -13.225632261669569
ltoes -8.697185588953039
rfemur -28.15351235170521 4.332731947524432 27.69623802834093
rtibia 54.598749173602016
rfoot 1.8912294513717889 -4.75784979286516
rtoes 0.4593575548773985
lowerback 14.412828888974513 -0.4681265606525206 0.3414932714729384
upperback -0.8612979307860871 -0.39658010759659534 1.5452167920687323
thorax -9.42683383174291 -0.16553453067698426 0.9170861030316484
lowerneck -20.127656532367656 -4.322586799532375 -1.93630807698477
upperneck 15.478343951895363 -6.043996585884998 2.7759942721041764
head 8.244086566465338 -2.8263100850680973 0.5472719901558836
lclavicle -1.9521729781560437e-15 1.1013548979497733e-15
lhumerus -47.42917559558886 -8.800895512698347 97.8222042554709
lradius 110.62868117310867
lwrist 46.5144568250936
lhand -17.979820177668767 5.790157199938267
lfingers 7.125020000000001
lthumb 8.194929014990295 35.7621216437714
rclavicle -1.952176533109819e-15 1.1013521049827522e-15
rhumerus -52.78412641408809 12.360969703347674 -101.51093894536143
rradius 113.20122591283985
rwrist -15.678757059459247
rhand -23.74525269051449 -100.69353527274461
rfingers 7.125020000000001
rthumb 3.946650300799225 15.108123486619284
127
root 0.7812722772935168 17.77248628598451 39.954242400569136 1.9351394929138876 2.148547129027331 1.0121170767771774
lfemur -16.951371993244866 2.028365681795024 -21.29796159013092
ltibia 69.35998079574392
lfoot 2.7356125869672225 -13.294061021600154
ltoes -8.266663453125975
rfemur -26.177898123867422 4.866585631455559 28.433452264930086
rtibia 54.277124220670586
rfoot 1.8039653392501647 -4.357994537329794
rtoes 0.351126003920027
lowerback 14.622806121928972 -0.37622283185560695 0.5727220130577302
upperback -0.7769536986152207 -0.17444440099019842 1.6172573430938066
thorax -9.386303102781111 -0.08596759024342981 0.9100315874290212
lowerneck -20.177367349853363 -4.403577007777339 -1.9658283749620566
upperneck 15.359225563805698 -6.162727347894566 2.728282081694707
head 8.244102663010077 -2.8226069157993052 0.5410146235312888
lclavicle -1.9521729781560437e-15 1.1013548979497733e-15
lhumerus -47.421826912024166 -8.695173205631146 97.91455742391351
lradius 110.2886989143465
lwrist 46.33386456864207
lhand -17.972479355114476 5.907558256274452
lfingers 7.125020000000001
lthumb 8.238764796242927 35.900172041754374
rclavicle -1.952176533109819e-15 1.1013521049827522e-15
rhumerus -52.276205169078175 12.301565054035171 -101.44339480204103
rradius 113.29707433859497
rwrist -15.811806411083479
rhand -23.9206827975916 -103.60935357218355
rfingers 7.125020000000001
rthumb 3.769400995961549 14.645763021251014
